<svg xmlns="http://www.w3.org/2000/svg" xmlns:xlink="http://www.w3.org/1999/xlink" width="40" zoomAndPan="magnify" viewBox="0 0 30 30.000001" height="40" preserveAspectRatio="xMidYMid meet" version="1.0"><defs><g/><clipPath id="76142c8d59"><path d="M 5.816406 9 L 16.863281 9 L 16.863281 19.289062 L 5.816406 19.289062 Z M 5.816406 9 " clip-rule="nonzero"/></clipPath><clipPath id="42552b76cc"><path d="M 7 8.875 L 16 8.875 L 16 16 L 7 16 Z M 7 8.875 " clip-rule="nonzero"/></clipPath><clipPath id="c0ada733da"><path d="M 14.792969 8.347656 L 18.878906 8.347656 L 18.878906 16.949219 L 14.792969 16.949219 Z M 14.792969 8.347656 " clip-rule="nonzero"/></clipPath><clipPath id="aff84a8f09"><path d="M 16.519531 5.933594 L 23.566406 5.933594 L 23.566406 16.949219 L 16.519531 16.949219 Z M 16.519531 5.933594 " clip-rule="nonzero"/></clipPath><clipPath id="6f4639ae72"><path d="M 19 4.355469 L 23 4.355469 L 23 12 L 19 12 Z M 19 4.355469 " clip-rule="nonzero"/></clipPath></defs><g clip-path="url(#76142c8d59)"><path fill="#000000" d="M 18.4375 9.902344 C 16.203125 10.835938 14.234375 11.949219 12.675781 13.410156 L 14.8125 13.410156 L 14.8125 15.070312 L 11.210938 15.070312 C 10.5 16.050781 9.9375 17.164062 9.546875 18.445312 L 9.546875 19.332031 L 5.816406 19.332031 C 8.378906 14.355469 12.941406 10.933594 18.4375 9.902344 Z M 18.4375 9.902344 " fill-opacity="1" fill-rule="evenodd"/></g><g clip-path="url(#42552b76cc)"><path fill="#ff0000" d="M 7.726562 8.867188 L 15.480469 8.867188 L 15.480469 10.1875 C 15.179688 10.292969 14.886719 10.40625 14.597656 10.527344 L 9.546875 10.527344 L 9.546875 13.410156 L 9.875 13.410156 C 9.101562 14.066406 8.382812 14.785156 7.726562 15.5625 Z M 7.726562 8.867188 " fill-opacity="1" fill-rule="evenodd"/></g><g clip-path="url(#c0ada733da)"><path fill="#000000" d="M 14.792969 8.382812 L 14.792969 15.457031 C 14.792969 16.089844 15.296875 16.691406 16.070312 16.949219 L 16.070312 11.105469 C 16.140625 11.160156 16.941406 11.773438 17.773438 12.441406 C 17.988281 12.261719 18.230469 12.082031 18.5 11.910156 C 18.617188 11.832031 18.742188 11.753906 18.863281 11.667969 L 14.792969 8.382812 " fill-opacity="1" fill-rule="nonzero"/></g><g clip-path="url(#aff84a8f09)"><path fill="#ff0000" d="M 23.066406 5.972656 C 23.257812 9.066406 20.839844 10.964844 18.933594 12.191406 C 16.777344 13.574219 16.554688 15.402344 16.554688 15.402344 C 18.003906 13.0625 19.753906 13.132812 21.460938 11.835938 L 21.453125 16.949219 C 22.226562 16.691406 22.730469 16.089844 22.730469 15.457031 L 22.730469 10.507812 C 24.390625 8.285156 23.066406 5.972656 23.066406 5.972656 " fill-opacity="1" fill-rule="nonzero"/></g><g clip-path="url(#6f4639ae72)"><path fill="#004aad" d="M 22.144531 6.097656 C 21.921875 4.761719 21.117188 4.382812 21.117188 4.382812 C 21.910156 6.957031 21.0625 9.210938 19.804688 11.058594 C 21.179688 9.660156 22.332031 7.964844 22.144531 6.097656 " fill-opacity="1" fill-rule="nonzero"/></g><g fill="#000000" fill-opacity="1"><g transform="translate(3.387875, 23.107315)"><g><path d="M 0.246094 0 L 0.6875 0 C 0.757812 0 0.808594 -0.0546875 0.808594 -0.125 L 0.808594 -0.570312 C 0.808594 -0.636719 0.863281 -0.6875 0.929688 -0.6875 L 1.914062 -0.6875 C 1.980469 -0.6875 2.035156 -0.742188 2.035156 -0.808594 L 2.035156 -1.164062 C 2.035156 -1.234375 1.980469 -1.285156 1.910156 -1.285156 L 0.929688 -1.285156 C 0.863281 -1.285156 0.808594 -1.339844 0.808594 -1.40625 C 0.808594 -1.472656 0.863281 -1.527344 0.929688 -1.527344 L 2.019531 -1.527344 C 2.089844 -1.527344 2.140625 -1.582031 2.140625 -1.648438 L 2.140625 -2.003906 C 2.140625 -2.070312 2.089844 -2.125 2.019531 -2.125 L 0.246094 -2.125 C 0.175781 -2.125 0.121094 -2.070312 0.121094 -2.003906 L 0.121094 -0.121094 C 0.121094 -0.0546875 0.175781 0 0.246094 0 Z M 0.246094 0 "/></g></g></g><g fill="#000000" fill-opacity="1"><g transform="translate(5.648563, 23.107315)"><g><path d="M 0.246094 0 L 0.6875 0 C 0.757812 0 0.808594 -0.0546875 0.808594 -0.121094 L 0.808594 -2.003906 C 0.808594 -2.070312 0.757812 -2.125 0.6875 -2.125 L 0.246094 -2.125 C 0.175781 -2.125 0.121094 -2.070312 0.121094 -2.003906 L 0.121094 -0.121094 C 0.121094 -0.0546875 0.175781 0 0.246094 0 Z M 0.246094 0 "/></g></g></g><g fill="#000000" fill-opacity="1"><g transform="translate(6.580997, 23.107315)"><g><path d="M 0.246094 0 L 0.6875 0 C 0.757812 0 0.808594 -0.0546875 0.808594 -0.121094 L 0.808594 -1.359375 C 0.808594 -1.425781 0.863281 -1.480469 0.929688 -1.480469 C 1 -1.480469 1.050781 -1.425781 1.050781 -1.359375 L 1.050781 -0.121094 C 1.050781 -0.0546875 1.105469 0 1.175781 0 L 2.441406 0 C 2.511719 0 2.5625 -0.0546875 2.5625 -0.121094 L 2.5625 -2.003906 C 2.5625 -2.070312 2.511719 -2.125 2.441406 -2.125 L 1.996094 -2.125 C 1.929688 -2.125 1.875 -2.070312 1.875 -2.003906 L 1.875 -0.757812 C 1.875 -0.691406 1.824219 -0.636719 1.753906 -0.636719 C 1.6875 -0.636719 1.632812 -0.691406 1.632812 -0.757812 L 1.632812 -2.003906 C 1.632812 -2.074219 1.582031 -2.125 1.511719 -2.125 L 0.246094 -2.125 C 0.175781 -2.125 0.121094 -2.070312 0.121094 -2.003906 L 0.121094 -0.121094 C 0.121094 -0.0546875 0.175781 0 0.246094 0 Z M 0.246094 0 "/></g></g></g><g fill="#000000" fill-opacity="1"><g transform="translate(9.266726, 23.107315)"><g><path d="M 0.246094 0 L 2.019531 0 C 2.089844 0 2.140625 -0.0546875 2.140625 -0.121094 L 2.140625 -0.4375 C 2.140625 -0.507812 2.089844 -0.558594 2.019531 -0.558594 L 0.929688 -0.558594 C 0.863281 -0.558594 0.808594 -0.613281 0.808594 -0.679688 C 0.808594 -0.746094 0.863281 -0.800781 0.929688 -0.800781 L 1.914062 -0.800781 C 1.980469 -0.800781 2.035156 -0.855469 2.035156 -0.925781 L 2.035156 -1.203125 C 2.035156 -1.273438 1.980469 -1.324219 1.914062 -1.324219 L 0.929688 -1.324219 C 0.863281 -1.324219 0.808594 -1.378906 0.808594 -1.445312 C 0.808594 -1.515625 0.863281 -1.566406 0.929688 -1.566406 L 2.019531 -1.566406 C 2.089844 -1.566406 2.140625 -1.621094 2.140625 -1.691406 L 2.140625 -2.003906 C 2.140625 -2.070312 2.089844 -2.125 2.019531 -2.125 L 0.246094 -2.125 C 0.175781 -2.125 0.121094 -2.070312 0.121094 -2.003906 L 0.121094 -0.121094 C 0.121094 -0.0546875 0.175781 0 0.246094 0 Z M 0.246094 0 "/></g></g></g><g fill="#000000" fill-opacity="1"><g transform="translate(11.530071, 23.107315)"><g><path d="M 0.246094 0 L 1.558594 0 C 1.894531 0 2.136719 -0.246094 2.136719 -0.585938 L 2.136719 -0.757812 C 2.136719 -1.09375 1.894531 -1.339844 1.558594 -1.339844 L 0.929688 -1.339844 C 0.863281 -1.339844 0.808594 -1.390625 0.808594 -1.457031 C 0.808594 -1.527344 0.863281 -1.582031 0.929688 -1.582031 L 2.015625 -1.582031 C 2.085938 -1.582031 2.136719 -1.632812 2.136719 -1.703125 L 2.136719 -2.003906 C 2.136719 -2.070312 2.085938 -2.125 2.015625 -2.125 L 0.703125 -2.125 C 0.367188 -2.125 0.121094 -1.882812 0.121094 -1.542969 L 0.121094 -1.371094 C 0.121094 -1.035156 0.367188 -0.789062 0.703125 -0.789062 L 1.328125 -0.789062 C 1.398438 -0.789062 1.449219 -0.734375 1.449219 -0.667969 C 1.449219 -0.601562 1.398438 -0.546875 1.328125 -0.546875 L 0.246094 -0.546875 C 0.175781 -0.546875 0.121094 -0.492188 0.121094 -0.425781 L 0.121094 -0.121094 C 0.121094 -0.0546875 0.175781 0 0.246094 0 Z M 0.246094 0 "/></g></g></g><g fill="#000000" fill-opacity="1"><g transform="translate(13.790759, 23.107315)"><g><path d="M 0.246094 0 L 2.019531 0 C 2.089844 0 2.140625 -0.0546875 2.140625 -0.121094 L 2.140625 -0.4375 C 2.140625 -0.507812 2.089844 -0.558594 2.019531 -0.558594 L 0.929688 -0.558594 C 0.863281 -0.558594 0.808594 -0.613281 0.808594 -0.679688 C 0.808594 -0.746094 0.863281 -0.800781 0.929688 -0.800781 L 1.914062 -0.800781 C 1.980469 -0.800781 2.035156 -0.855469 2.035156 -0.925781 L 2.035156 -1.203125 C 2.035156 -1.273438 1.980469 -1.324219 1.914062 -1.324219 L 0.929688 -1.324219 C 0.863281 -1.324219 0.808594 -1.378906 0.808594 -1.445312 C 0.808594 -1.515625 0.863281 -1.566406 0.929688 -1.566406 L 2.019531 -1.566406 C 2.089844 -1.566406 2.140625 -1.621094 2.140625 -1.691406 L 2.140625 -2.003906 C 2.140625 -2.070312 2.089844 -2.125 2.019531 -2.125 L 0.246094 -2.125 C 0.175781 -2.125 0.121094 -2.070312 0.121094 -2.003906 L 0.121094 -0.121094 C 0.121094 -0.0546875 0.175781 0 0.246094 0 Z M 0.246094 0 "/></g></g></g><g fill="#000000" fill-opacity="1"><g transform="translate(16.054104, 23.107315)"><g/></g></g><g fill="#000000" fill-opacity="1"><g transform="translate(16.89356, 23.107315)"><g><path d="M 0.246094 0 L 0.6875 0 C 0.757812 0 0.808594 -0.0546875 0.808594 -0.121094 L 0.808594 -1.359375 C 0.808594 -1.425781 0.863281 -1.480469 0.929688 -1.480469 C 1 -1.480469 1.050781 -1.425781 1.050781 -1.359375 L 1.050781 -0.121094 C 1.050781 -0.0546875 1.105469 0 1.175781 0 L 1.617188 0 C 1.6875 0 1.738281 -0.0546875 1.738281 -0.121094 L 1.738281 -1.359375 C 1.738281 -1.425781 1.792969 -1.480469 1.859375 -1.480469 C 1.929688 -1.480469 1.980469 -1.425781 1.980469 -1.359375 L 1.980469 -0.121094 C 1.980469 -0.0546875 2.035156 0 2.105469 0 L 2.546875 0 C 2.617188 0 2.667969 -0.0546875 2.667969 -0.121094 L 2.667969 -2.003906 C 2.667969 -2.070312 2.617188 -2.125 2.546875 -2.125 L 1.640625 -2.125 C 1.570312 -2.125 1.515625 -2.070312 1.515625 -2.003906 L 1.515625 -1.796875 C 1.515625 -1.730469 1.464844 -1.675781 1.394531 -1.675781 C 1.328125 -1.675781 1.273438 -1.730469 1.273438 -1.796875 L 1.273438 -2.003906 C 1.273438 -2.070312 1.222656 -2.125 1.152344 -2.125 L 0.246094 -2.125 C 0.175781 -2.125 0.121094 -2.070312 0.121094 -2.003906 L 0.121094 -0.121094 C 0.121094 -0.0546875 0.175781 0 0.246094 0 Z M 0.246094 0 "/></g></g></g><g fill="#000000" fill-opacity="1"><g transform="translate(19.68555, 23.107315)"><g><path d="M 0.246094 0 L 2.019531 0 C 2.089844 0 2.140625 -0.0546875 2.140625 -0.121094 L 2.140625 -0.4375 C 2.140625 -0.507812 2.089844 -0.558594 2.019531 -0.558594 L 0.929688 -0.558594 C 0.863281 -0.558594 0.808594 -0.613281 0.808594 -0.679688 C 0.808594 -0.746094 0.863281 -0.800781 0.929688 -0.800781 L 1.914062 -0.800781 C 1.980469 -0.800781 2.035156 -0.855469 2.035156 -0.925781 L 2.035156 -1.203125 C 2.035156 -1.273438 1.980469 -1.324219 1.914062 -1.324219 L 0.929688 -1.324219 C 0.863281 -1.324219 0.808594 -1.378906 0.808594 -1.445312 C 0.808594 -1.515625 0.863281 -1.566406 0.929688 -1.566406 L 2.019531 -1.566406 C 2.089844 -1.566406 2.140625 -1.621094 2.140625 -1.691406 L 2.140625 -2.003906 C 2.140625 -2.070312 2.089844 -2.125 2.019531 -2.125 L 0.246094 -2.125 C 0.175781 -2.125 0.121094 -2.070312 0.121094 -2.003906 L 0.121094 -0.121094 C 0.121094 -0.0546875 0.175781 0 0.246094 0 Z M 0.246094 0 "/></g></g></g><g fill="#000000" fill-opacity="1"><g transform="translate(21.948895, 23.107315)"><g><path d="M 0.246094 0 L 1.144531 0 C 1.492188 0 1.738281 -0.253906 1.738281 -0.597656 L 1.738281 -1.53125 C 1.738281 -1.875 1.492188 -2.125 1.144531 -2.125 L 0.246094 -2.125 C 0.175781 -2.125 0.121094 -2.070312 0.121094 -2.003906 L 0.121094 -0.121094 C 0.121094 -0.0546875 0.175781 0 0.246094 0 Z M 0.929688 -0.546875 C 0.863281 -0.546875 0.808594 -0.601562 0.808594 -0.667969 L 0.808594 -1.457031 C 0.808594 -1.527344 0.863281 -1.582031 0.929688 -1.582031 C 1 -1.582031 1.050781 -1.527344 1.050781 -1.457031 L 1.050781 -0.667969 C 1.050781 -0.601562 1 -0.546875 0.929688 -0.546875 Z M 0.929688 -0.546875 "/></g></g></g><g fill="#000000" fill-opacity="1"><g transform="translate(23.811106, 23.107315)"><g><path d="M 0.246094 0 L 0.6875 0 C 0.757812 0 0.808594 -0.0546875 0.808594 -0.121094 L 0.808594 -2.003906 C 0.808594 -2.070312 0.757812 -2.125 0.6875 -2.125 L 0.246094 -2.125 C 0.175781 -2.125 0.121094 -2.070312 0.121094 -2.003906 L 0.121094 -0.121094 C 0.121094 -0.0546875 0.175781 0 0.246094 0 Z M 0.246094 0 "/></g></g></g><g fill="#000000" fill-opacity="1"><g transform="translate(24.74354, 23.107315)"><g><path d="M 0.246094 0 L 0.6875 0 C 0.757812 0 0.808594 -0.0546875 0.808594 -0.121094 L 0.808594 -0.464844 C 0.808594 -0.535156 0.863281 -0.585938 0.929688 -0.585938 C 1 -0.585938 1.050781 -0.53125 1.050781 -0.464844 L 1.050781 -0.121094 C 1.050781 -0.0546875 1.105469 0 1.175781 0 L 1.617188 0 C 1.6875 0 1.738281 -0.0546875 1.738281 -0.121094 L 1.738281 -1.53125 C 1.738281 -1.875 1.492188 -2.125 1.144531 -2.125 L 0.71875 -2.125 C 0.371094 -2.125 0.121094 -1.875 0.121094 -1.53125 L 0.121094 -0.121094 C 0.121094 -0.0546875 0.175781 0 0.246094 0 Z M 0.929688 -1.082031 C 0.863281 -1.082031 0.808594 -1.132812 0.808594 -1.199219 L 0.808594 -1.445312 C 0.808594 -1.515625 0.863281 -1.566406 0.929688 -1.566406 C 1 -1.566406 1.050781 -1.515625 1.050781 -1.445312 L 1.050781 -1.199219 C 1.050781 -1.132812 1 -1.082031 0.929688 -1.082031 Z M 0.929688 -1.082031 "/></g></g></g></svg>